<?xml version="1.0" encoding="utf-8"?>
<!-- Generator: Adobe Illustrator 20.1.0, SVG Export Plug-In . SVG Version: 6.00 Build 0)  -->
<svg version="1.1" id="Layer_1" xmlns="http://www.w3.org/2000/svg" xmlns:xlink="http://www.w3.org/1999/xlink" x="0px" y="0px"
	 viewBox="0 0 498 436" style="enable-background:new 0 0 498 436;" xml:space="preserve">
<style type="text/css">
	.st0{fill:#7A7264;}
	.st1{fill:#BEAF9D;}
	.st2{fill:#A39A87;}
	.st3{fill:#EEEDEE;}
	.st4{fill:none;stroke:#000000;stroke-miterlimit:10;}
	.st5{fill:none;stroke:#595C59;stroke-miterlimit:10;}
	.st6{fill:none;}
	.st7{fill:#7B6B46;}
	.st8{fill:#B6A894;}
	.st9{fill:#968563;}
	.st10{fill:#E9E1DA;stroke:#000000;stroke-miterlimit:10;}
	.st11{fill:#79756D;}
	.st12{fill:#D7D0CC;}
	.st13{fill:#AFABA7;}
	.st14{fill:#FDFDFD;stroke:#000000;stroke-miterlimit:10;}
	.st15{fill:#857E73;}
	.st16{fill:#CBC2BA;}
	.st17{fill:url(#SVGID_1_);}
	.st18{fill:url(#SVGID_2_);}
	.st19{fill:#2B1C1D;}
	.st20{fill:none;stroke:#A0A09F;stroke-miterlimit:10;}
	.st21{fill:none;stroke:#564F47;stroke-miterlimit:10;}
</style>
<g id="Layer_1_1_">
	<g id="XMLID_2_">
		<g>
			<polygon class="st0" points="262,142.1 262,318.1 199.5,384.6 199.5,190.1 			"/>
			<polygon class="st1" points="262,142.1 199.5,190.1 5,190.1 84,142.1 			"/>
			<polygon class="st2" points="199.5,190.1 199.5,384.6 102.3,287.4 			"/>
			<polygon class="st2" points="199.5,190.1 102.3,287.4 51,236.1 71,236.1 71,207.1 22,207.1 5,190.1 			"/>
			<polygon class="st2" points="199.5,384.6 5,384.6 102.3,287.4 			"/>
			<polygon class="st2" points="102.3,287.4 5,384.6 5,190.1 22,207.1 15,207.1 15,236.1 51,236.1 			"/>
			<polygon class="st3" points="61,218.6 61,216.1 30.1,215.2 22,207.1 71,207.1 71,236.1 51,236.1 37.9,223 39.7,221.6 47,218.6 
				47,224.6 51.4,221.6 55.9,224.6 			"/>
			<polygon class="st3" points="61,216.1 61,218.6 55.9,224.6 51.4,221.6 47,224.6 47,218.6 39.7,221.6 37.9,223 36,221.1 36,218.6 
				34.9,220.1 30.1,215.2 			"/>
			<polygon class="st3" points="30.1,215.2 34.9,220.1 36,221.1 36,224.6 37.9,223 51,236.1 15,236.1 15,207.1 22,207.1 			"/>
			<polygon class="st3" points="37.9,223 36,224.6 36,221.1 			"/>
			<polygon class="st3" points="36,218.6 36,221.1 34.9,220.1 			"/>
		</g>
		<g>
			<rect x="5" y="190.1" class="st4" width="194.5" height="194.5"/>
			<polyline class="st4" points="22,207.1 5,190.1 84,142.1 262,142.1 199.5,190.1 102.3,287.4 5,384.6 			"/>
			<polyline class="st4" points="262,142.1 262,318.1 199.5,384.6 102.3,287.4 51,236.1 			"/>
			<polygon class="st4" points="22,207.1 71,207.1 71,236.1 51,236.1 15,236.1 15,207.1 			"/>
			<path class="st5" d="M25,224.6c2.2-6,2.2-6,2.2-6l4.4,6l3.3-4.5l1.1-1.5v2.5v3.5l1.9-1.6l1.8-1.4l7.3-3v6l4.4-3l4.4,3l5.1-6v6"/>
		</g>
	</g>
	<line class="st6" x1="266.4" y1="459" x2="267.8" y2="457.3"/>
	<path class="st4" d="M-296-168.9"/>
	<path class="st4" d="M-434-70.9"/>
	<g id="XMLID_1_">
		<g>
			<polygon class="st7" points="490.8,116.5 489.6,305.5 404.8,416.2 404.8,194.8 			"/>
			<polygon class="st8" points="490.8,116.5 404.8,194.8 406,193.2 404.6,194.8 212.7,194.8 332.4,115.7 			"/>
			<path class="st9" d="M404.8,416.2L404.8,416.2L404.8,416.2z"/>
			<polygon class="st9" points="404.8,194.8 404.8,416.2 404.8,416.2 308.7,305.5 			"/>
			<polygon class="st9" points="404.8,194.8 308.7,305.5 308.7,305.4 404.6,194.8 			"/>
			<polygon class="st9" points="404.8,416.2 212.7,416.2 308.7,305.5 			"/>
			<polygon class="st9" points="404.6,194.8 308.7,305.4 212.7,194.8 			"/>
			<polygon class="st9" points="308.7,305.5 212.7,416.2 308.7,305.4 			"/>
			<polygon class="st9" points="212.7,416.2 212.7,194.8 308.7,305.4 			"/>
		</g>
		<g>
			<polygon class="st4" points="404.8,416.2 212.7,416.2 212.7,194.8 404.6,194.8 404.8,194.8 			"/>
			<polyline class="st4" points="212.7,416.2 308.7,305.5 404.8,194.8 			"/>
			<polyline class="st4" points="212.7,194.8 308.7,305.4 308.7,305.5 404.8,416.2 			"/>
			<line class="st4" x1="212.7" y1="194.8" x2="332.4" y2="115.7"/>
			<line class="st4" x1="332.4" y1="115.7" x2="490.8" y2="116.5"/>
			<line class="st4" x1="404.8" y1="194.8" x2="490.8" y2="116.5"/>
			<line class="st4" x1="404.8" y1="416.2" x2="404.8" y2="416.2"/>
			<polyline class="st4" points="489.6,305.5 404.8,416.2 404.8,416.2 			"/>
			<line class="st4" x1="490.8" y1="116.5" x2="489.6" y2="305.5"/>
		</g>
	</g>
	<rect x="315.8" y="333.9" class="st10" width="70.1" height="49"/>
	<path class="st4" d="M327.3,353.4c2.3-3.4,4.5-6.7,6.8-10.1c0.8,4.1,2.3,7.9,4.2,11.4c1.4-2.1,2.8-4.1,4.2-6.2c2.4,2.5,4,6,4.7,9.7
		c1.4,0.7,2.7-1,3.6-2.4s2.8-2.7,3.7-1.3c1.3-3.3,2.6-6.5,3.9-9.8c1.8,4.3,4.2,8.3,7.1,11.6c1.3-1.4,1.7-3.7,2.3-5.6
		c0.6-2,1.8-4.1,3.6-4.2c2.3-0.1,3.6,3.6,2.9,6.3"/>
	<path class="st4" d="M337.2,370.6c0,1.7,2.1,2.3,3.2,1.2s1.3-2.9,1.2-4.6c0-1.7-0.2-3.4,0.5-4.9c3.9,1.5,4.3,7.8,4,12.7
		c-1.7-6.3,3.3-13.7,8.9-13.1c0.4,0,0.9,0.1,1.1,0.5c0.3,0.3,0.4,0.9,0.4,1.4c0.3,3.1-0.8,6.3-2.7,8.3c-2.7,0.2-4.9-3.6-3.8-6.5
		c2.7-1.7,6.4-0.4,8,2.7c0.5,0.9,0.8,2,1.5,2.6c0.6,0.5,1.4,0.5,2.1,0.6c3.2,0.2,7.1-0.2,8.3-3.7c-1.2-1.6-3-2.6-4.9-2.8
		c3.3,0.5,6.5,1,9.8,1.5c2.1,0.3,4.5,0.9,5.5,3.1c1.1-1,2.2-1.9,3.3-2.9"/>
	<g id="XMLID_4_">
		<g>
			<polygon class="st11" points="236.5,85.7 236.5,152.8 209.5,178.8 209.5,110.2 			"/>
			<polygon class="st12" points="236.5,85.7 209.5,110.2 133.5,110.2 163.5,85.7 			"/>
			<rect x="133.5" y="110.2" class="st13" width="76" height="68.7"/>
		</g>
		<g>
			<rect x="133.5" y="110.2" class="st4" width="76" height="68.7"/>
			<line class="st4" x1="133.5" y1="110.2" x2="163.5" y2="85.7"/>
			<line class="st4" x1="209.5" y1="110.2" x2="236.5" y2="85.7"/>
			<line class="st4" x1="163.5" y1="85.7" x2="236.5" y2="85.7"/>
			<line class="st4" x1="209.5" y1="178.8" x2="236.5" y2="152.8"/>
			<line class="st4" x1="236.5" y1="152.8" x2="236.5" y2="85.7"/>
		</g>
	</g>
	<line class="st4" x1="209.5" y1="110.2" x2="133.5" y2="178.8"/>
	<line class="st4" x1="133.5" y1="110.2" x2="209.5" y2="178.8"/>
	<rect x="148.5" y="136.3" class="st14" width="32" height="20.5"/>
	<path class="st4" d="M154.1,151.4c1-2.9,2-5.9,3.1-8.8c1.8,3.5,3.6,6.9,5.3,10.4c-0.1-3.6,0.3-7.3,1.4-10.7c2.3,0.6,4,2.8,4,5.1
		c1.7-2.4,3.3-4.8,5-7.3c1.3,3.6,1.9,7.3,2,11.1"/>
	<g id="XMLID_3_">
		<g>
			<polygon class="st15" points="412.3,37.7 412.3,129.8 351.1,184.8 351.1,74.8 			"/>
			<polygon class="st16" points="412.3,37.7 351.1,74.8 230.6,74.8 290.8,37.7 			"/>
			<polygon class="st2" points="351.1,74.8 351.1,184.8 290.8,129.8 			"/>
			<polygon class="st2" points="351.1,74.8 290.8,129.8 259.1,100.8 271.5,100.8 271.5,84.4 241.1,84.4 230.6,74.8 			"/>
			<polygon class="st2" points="351.1,184.8 230.6,184.8 290.8,129.8 			"/>
			<polygon class="st2" points="290.8,129.8 230.6,184.8 230.6,74.8 241.1,84.4 236.8,84.4 236.8,100.8 259.1,100.8 			"/>
			<polygon class="st3" points="251,93.4 249.8,92.3 249.8,90.9 249.2,91.7 246.2,89 241.1,84.4 271.5,84.4 271.5,100.8 
				259.1,100.8 			"/>
			<polygon class="st3" points="249.2,91.7 249.8,92.3 249.8,94.3 251,93.4 259.1,100.8 236.8,100.8 236.8,84.4 241.1,84.4 
				246.2,89 			"/>
			<polygon class="st3" points="251,93.4 249.8,94.3 249.8,92.3 			"/>
			<polygon class="st3" points="249.8,90.9 249.8,92.3 249.2,91.7 			"/>
		</g>
		<g>
			<rect x="230.6" y="74.8" class="st4" width="120.5" height="110"/>
			<polyline class="st4" points="259.1,100.8 290.8,129.8 351.1,184.8 			"/>
			<line class="st4" x1="230.6" y1="74.8" x2="241.1" y2="84.4"/>
			<polyline class="st4" points="351.1,74.8 290.8,129.8 230.6,184.8 			"/>
			<polygon class="st4" points="241.1,84.4 271.5,84.4 271.5,100.8 259.1,100.8 236.8,100.8 236.8,84.4 			"/>
			<path class="st5" d="M243,94.3c1.4-3.4,1.4-3.4,1.4-3.4l2.7,3.4l2.1-2.6l0.7-0.8v1.4v2l1.2-0.9l1.1-0.8l4.6-1.7v3.4l2.7-1.7
				l2.7,1.7l3.2-3.4v3.4"/>
			<line class="st4" x1="230.6" y1="74.8" x2="290.8" y2="37.7"/>
			<line class="st4" x1="351.1" y1="74.8" x2="412.3" y2="37.7"/>
			<line class="st4" x1="290.8" y1="37.7" x2="412.3" y2="37.7"/>
			<line class="st4" x1="351.1" y1="184.8" x2="412.3" y2="129.8"/>
			<line class="st4" x1="412.3" y1="129.8" x2="412.3" y2="37.7"/>
		</g>
	</g>
	<g id="XMLID_5_">
		<g>
			
				<linearGradient id="SVGID_1_" gradientUnits="userSpaceOnUse" x1="434.2281" y1="150.5" x2="470.3278" y2="150.5" gradientTransform="matrix(1 0 0 -1 0 540.11)">
				<stop  offset="0.4433" style="stop-color:#FFFFFF"/>
				<stop  offset="0.665" style="stop-color:#EEEEEE"/>
				<stop  offset="1" style="stop-color:#575756"/>
			</linearGradient>
			<path class="st17" d="M470.3,370.3l-6.5,37.6l0,0c-3.9,0.4-7.6,0.8-11.7,1c-3.8-0.2-7.5-0.6-11.4-1l0,0l-6.4-37.3
				c1.4,2.6,8.9,4.6,17.9,4.6C461.6,375.2,469.4,373,470.3,370.3L470.3,370.3z"/>
			
				<linearGradient id="SVGID_2_" gradientUnits="userSpaceOnUse" x1="434.0001" y1="172.8515" x2="470.3" y2="172.8515" gradientTransform="matrix(1 0 0 -1 0 540.11)">
				<stop  offset="0.4433" style="stop-color:#FFFFFF"/>
				<stop  offset="0.665" style="stop-color:#EEEEEE"/>
				<stop  offset="1" style="stop-color:#575756"/>
			</linearGradient>
			<path class="st18" d="M470.3,369.8c0,0.1,0,0.1,0,0.2h-0.1c-10.1-1.5-20.4-2.7-30.5-1.2c-1,0.1-1.9,0.3-2.8,0.5
				c-0.9,0.2-1.9,0.5-2.8,0.8H434c0-0.1,0-0.2,0-0.3c0-3,8.1-5.4,18.2-5.4C462.2,364.3,470.3,366.8,470.3,369.8z"/>
			<path class="st19" d="M434.2,370.6c-0.1-0.2-0.2-0.4-0.2-0.6h0.1c0.9-0.3,1.9-0.5,2.8-0.8c0.9-0.2,1.9-0.4,2.8-0.5
				c10-1.4,20.3-0.3,30.5,1.2h0.1c0,0.1,0,0.2-0.1,0.3c-0.8,2.8-8.6,4.9-18.1,4.9C443.1,375.2,435.6,373.2,434.2,370.6z"/>
		</g>
		<g>
			<polyline class="st4" points="434.2,370.3 434.2,370.6 440.7,407.9 440.7,408 			"/>
			<path class="st4" d="M463.8,407.9c-3.9,0.4-7.6,0.8-11.7,1c-0.1,0-0.2,0-0.3,0"/>
			<polyline class="st4" points="470.3,370.3 463.8,407.9 463.8,408 			"/>
			<path class="st4" d="M440.7,407.9c3.9,0.4,7.6,0.8,11.4,1c0.1,0,0.2,0,0.3,0"/>
			<path class="st4" d="M434.1,370c0.9-0.3,1.9-0.5,2.8-0.8c0.9-0.2,1.9-0.4,2.8-0.5c10-1.4,20.3-0.3,30.5,1.2"/>
			<path class="st4" d="M470.3,370c0-0.1,0-0.1,0-0.2c0-3-8.1-5.4-18.2-5.4c-10,0-18.2,2.4-18.2,5.4c0,0.1,0,0.2,0,0.3
				c0,0.2,0.1,0.4,0.2,0.6c1.4,2.6,8.9,4.6,17.9,4.6c9.5,0,17.3-2.2,18.1-4.9C470.3,370.1,470.3,370.1,470.3,370z"/>
		</g>
	</g>
	<path class="st20" d="M458.3,358.5c-2.4,0.2-4.9,0.2-7.3,0c-0.9-0.1-1.8-0.2-2.4-0.9c-0.8-1-0.4-2.6,0.5-3.4s2.1-1,3.3-0.9
		c1.2,0,2.3,0.2,3.5-0.1c0.6-0.2,1.4-0.6,1.3-1.3c0-0.7-0.7-1-1.3-1.3c-1.5-0.7-3-1.6-4.4-2.7c-0.3-0.2-0.5-0.4-0.6-0.8
		c0-0.5,0.5-0.8,0.9-1c1.2-0.5,2.3-1,3.5-1.6c-0.6-1.3-1.4-2.4-2.4-3.3"/>
	<path class="st21" d="M457.5,370.1c-3.5-0.4-7.2-0.8-10.5,0.5c-0.2,0.1-0.4,0.2-0.5,0.4c0,0.3,0.2,0.5,0.5,0.6
		c2.8,1.6,6.1,1.7,9.3,1.8c0.5,0,1.1,0,1.4-0.4c0-0.4-0.3-0.6-0.6-0.7c-0.4-0.2-0.7-0.3-1.1-0.5c-0.6-0.3-1.2-0.6-1.8-0.6
		s-1.3,0.4-1.5,1.1c0.3,0,0.6,0.1,0.9,0.1"/>
	<g id="XMLID_6_">
		<g>
			<polygon class="st11" points="205.6,338 205.6,405.2 178.6,431.2 178.6,362.5 			"/>
			<polygon class="st12" points="205.6,338 178.6,362.5 102.6,362.5 132.6,338 			"/>
			<rect x="102.6" y="362.5" class="st13" width="76" height="68.7"/>
		</g>
		<g>
			<rect x="102.6" y="362.5" class="st4" width="76" height="68.7"/>
			<line class="st4" x1="102.6" y1="362.5" x2="132.6" y2="338"/>
			<line class="st4" x1="178.6" y1="362.5" x2="205.6" y2="338"/>
			<line class="st4" x1="132.6" y1="338" x2="205.6" y2="338"/>
			<line class="st4" x1="178.6" y1="431.2" x2="205.6" y2="405.2"/>
			<line class="st4" x1="205.6" y1="405.2" x2="205.6" y2="338"/>
		</g>
	</g>
	<line class="st4" x1="178.6" y1="362.5" x2="102.6" y2="431.2"/>
	<line class="st4" x1="102.6" y1="362.5" x2="178.6" y2="431.2"/>
	<rect x="117.6" y="388.7" class="st14" width="32" height="20.5"/>
	<path class="st4" d="M123.3,403.8c1-2.9,2-5.9,3.1-8.8c1.8,3.5,3.6,6.9,5.3,10.4c-0.1-3.6,0.3-7.3,1.4-10.7c2.3,0.6,4,2.8,4,5.1
		c1.7-2.4,3.3-4.8,5-7.3c1.3,3.6,1.9,7.3,2,11.1"/>
	<g id="XMLID_7_">
		<g>
			<polygon class="st11" points="338,4.3 338,48.3 320.6,65.4 320.6,20.3 			"/>
			<polygon class="st12" points="338,4.3 320.6,20.3 271.5,20.3 290.9,4.3 			"/>
			<rect x="271.5" y="20.3" class="st13" width="49.1" height="45.1"/>
		</g>
		<g>
			<rect x="271.5" y="20.3" class="st4" width="49.1" height="45.1"/>
			<line class="st4" x1="271.5" y1="20.3" x2="290.9" y2="4.3"/>
			<line class="st4" x1="320.6" y1="20.3" x2="338" y2="4.3"/>
			<line class="st4" x1="290.9" y1="4.3" x2="338" y2="4.3"/>
			<line class="st4" x1="320.6" y1="65.4" x2="338" y2="48.3"/>
			<line class="st4" x1="338" y1="48.3" x2="338" y2="4.3"/>
		</g>
	</g>
	<line class="st4" x1="320.6" y1="20.3" x2="271.5" y2="65.4"/>
	<line class="st4" x1="271.5" y1="20.3" x2="320.6" y2="65.4"/>
	<rect x="281.2" y="37.5" class="st14" width="20.7" height="13.4"/>
	<path class="st4" d="M284.8,47.4c0.7-1.9,1.3-3.8,2-5.8c1.1,2.3,2.3,4.6,3.4,6.8c-0.1-2.4,0.2-4.8,0.9-7c1.5,0.4,2.6,1.8,2.6,3.4
		c1.1-1.6,2.2-3.2,3.2-4.8c0.8,2.3,1.3,4.8,1.3,7.3"/>
</g>
<g id="Layer_3">
</g>
<g id="Layer_2">
</g>
</svg>
