<?xml version="1.0" encoding="utf-8"?>
<!-- Generator: Adobe Illustrator 20.1.0, SVG Export Plug-In . SVG Version: 6.00 Build 0)  -->
<svg version="1.1" id="Layer_2" xmlns="http://www.w3.org/2000/svg" xmlns:xlink="http://www.w3.org/1999/xlink" x="0px" y="0px"
	 viewBox="0 0 1104 408" style="enable-background:new 0 0 1104 408;" xml:space="preserve">
<style type="text/css">
	.st0{fill:#EBD3BC;stroke:#CA9E67;stroke-miterlimit:10;}
	.st1{stroke:#000000;stroke-miterlimit:10;}
	.st2{fill:#3C3C3B;stroke:#000000;stroke-miterlimit:10;}
	.st3{fill:#DADADA;stroke:#3C3C3B;stroke-miterlimit:10;}
	.st4{fill:#F6F6F6;stroke:#3C3C3B;stroke-miterlimit:10;}
	.st5{fill:#3C3C3B;}
	.st6{fill:#F2E5AF;stroke:#3C3C3B;stroke-miterlimit:10;}
	.st7{fill:#575756;stroke:#3C3C3B;stroke-miterlimit:10;}
	.st8{fill:none;stroke:#9D9D9C;stroke-miterlimit:10;}
	.st9{fill:none;stroke:#B2B2B2;stroke-miterlimit:10;}
	.st10{fill:none;stroke:#C6C6C6;stroke-miterlimit:10;}
	.st11{fill:url(#SVGID_1_);}
	.st12{fill:url(#SVGID_2_);}
	.st13{fill:url(#SVGID_3_);}
	.st14{fill:url(#SVGID_4_);}
	.st15{fill:url(#SVGID_5_);}
	.st16{fill:#878787;stroke:#706F6F;stroke-miterlimit:10;}
	.st17{fill:#D84150;stroke:#3C3C3B;stroke-miterlimit:10;}
	.st18{fill:#B2B2B2;stroke:#706F6F;stroke-miterlimit:10;}
	.st19{fill:#575756;stroke:#575756;stroke-miterlimit:10;}
	.st20{fill:none;stroke:#CA9E67;stroke-miterlimit:10;}
	.st21{fill:url(#SVGID_6_);}
	.st22{fill:url(#SVGID_7_);}
	.st23{fill:url(#SVGID_8_);}
	.st24{fill:url(#SVGID_9_);}
	.st25{fill:url(#SVGID_10_);}
	.st26{fill:url(#SVGID_11_);}
	.st27{fill:url(#SVGID_12_);}
</style>
<path class="st0" d="M685,307.6c63.2,4.1,83.1,1.3,86.5-3c0.4-0.5,2.4-3.4,5.8-4.1c3.9-0.8,7.7,1.5,10.3,3.5c2.6-5.5,8-9.2,14-9.5
	c6.3-0.4,12.4,2.9,15.5,8.5c-0.3-1.1-2.3-11.7,4.7-19.4c2.1-2.3,5.1-4.3,9.3-5.5c0,0,26-9.1,34,13.9c0,0-14-30.2,15-31.6
	c0,0-17,6.8-23-10.3c0,0-15-32.6,17-51.9c0,0,36-25.8,64,13c0,0,8-25.7,26-13c0,0,13,4.7,5,22.7c0,0,26-39.7,64-10.8
	c0,0,17,25.4,0,41.1c0,0,21-0.1,13,16.3c0,0,41,3.4,38,35.4c0,0,1,44.6-29,54.3c0,0-36,1.6-38-23.8c0,0,1,18.2-15,23.9
	c0,0-23,2.5-33-13.4c0,0-7,13-15,13.5c0,0-31,3.4-34-13.5c0,0-3,11.9-11,7.5c0,0-10-6.4-3-13.4c0,0-9,19.8-35,13.4
	c0,0-8.7-6.8-7.3-17.9c0,0,4,42.2-36,32.2c0,0-19.3-2.8-17.3-21.7c0,0-8,9.1-14.7,3.7c0,0-16-4.7-4.7-19.3c0,0-15.3,10.7-32.7,1.3
	c0,0-7.9-6.8-7.3-9.7L685,307.6z"/>
<path class="st1" d="M54.4,314.6c0,0,18-6.2,24.5,8.8h74c0,0,2.5-15.9,25-13.5v-42.3H54.4V314.6z"/>
<path class="st1" d="M544.8,311.2c0,0,18-6.2,24.5,8.8h74c0,0,2.5-15.9,25-13.5v-42.3H544.8V311.2z"/>
<circle class="st2" cx="111.3" cy="323.5" r="45.3"/>
<path class="st3" d="M61.3,333.5c0,0-6.9-53.4,48.3-58.9c0,0,14.3-2.8,29.1,7.1c11.5,7.7,22.4,21.9,23.7,48.4l389.7-3.9
	c0,0,3.3-54.3,54.7-54.3c0,0,44.3-2.6,53.3,51.7l120.7-4.7c0,0,3.3-187.3-21.3-243.3c0,0-6-6.7-26.7-5.3l-461.3,5.3
	c0,0-30.7,0-82.7,44.7l-75.3,76.7c0,0-57.3,26.7-85.3,44.7c0,0-14.7,16-12.7,40.7c0,0-6.4,5.3-0.2,11.3c0,0-5.8,32.7,25.5,32.7
	L61.3,333.5z"/>
<circle class="st2" cx="606.6" cy="323.5" r="45.3"/>
<path class="st4" d="M115.9,222.8c0,0,58.7-76.7,79.3-87.3c0,0,67.3-17.3,62,0c0,0-3.3,56.7-16,62
	C241.3,197.5,210.6,208.8,115.9,222.8z"/>
<path class="st5" d="M227,226.5c0,0,2-2.3,4.8-2.3H242h14.6c0,0,2,4-3,4.3h-22.3C231.3,228.5,227.8,228.8,227,226.5z"/>
<path class="st6" d="M34.5,240c8-2.9,22.3-3,19.5,5c0,0-24.2,33-34.5,30.3c0,0-10.6-2.1,6.5-30.2C26.8,243.9,31,241.3,34.5,240z"/>
<path class="st7" d="M15.3,282.1c0,0,58.4-0.5,69.5-0.2c0.2,0-2.5,0.4-2.7,0.5c-3.1,2.1-25.5,18.9-20.8,51l-20.7-7.3
	c0,0-29,3.7-25.5-32.7C15.1,293.5,9.3,287.5,15.3,282.1z"/>
<path class="st7" d="M625.9,275.2l154.7-3.4l0,47l-29.6,1.1l0.7-27.1l-101.6,3.3C650.2,296.1,640.7,280.4,625.9,275.2z"/>
<path class="st8" d="M195.3,127.8c0,0,62.5-16.5,72-5.5l-4.5,120c0,0-9,8.2-8.5,35.8l-0.5,45.3h-83c0,0-10.3-57.2-29.9-57.2v-47.4
	C140.8,218.9,139.3,171.7,195.3,127.8z"/>
<path class="st7" d="M115.9,222.8l49.8-8.1c0,0-21.1-6.9-9.4-41C156.3,173.7,131.6,200.8,115.9,222.8z"/>
<path class="st1" d="M149.9,201.4c0,0-1.1,4.6-5.9,7.1c-0.2,0.1-0.3,0.4-0.2,0.6c0.6,0.9,2.1,2.8,4,1.8c2.4-1.3,4.4-8.6,4.4-8.6
	S151.8,200.1,149.9,201.4z"/>
<path class="st1" d="M150.7,207.7c0,0-8.6-37,4.5-38.5c0,0,12.6-2.8,10.6,5.1c0,0-4.2,22.5,0,33.3
	C165.8,207.7,160.3,213.2,150.7,207.7z"/>
<path class="st8" d="M289.3,122.8l442.7-4.3c0,0,10.7-1.7,12.7,15.6s9.3,72,9.3,72l-453.3,5.1c0,0-7.3-0.7-7.3-10.2
	s-8.7-73.2-8.7-73.2S285.3,122.8,289.3,122.8z"/>
<path class="st9" d="M197.3,250.1c0,0,163.3-26.7,556.7-23.7"/>
<path class="st7" d="M147.3,282l439-6.8c0,0-22.2,10-25.5,22.4l-404.2,3.9c0,0-7.6-14.4-18-19.8L147.3,282z"/>
<path class="st10" d="M239.3,101.5c0,0,23.3-7.3,50-6l430.7-3.3"/>
<line class="st10" x1="443.9" y1="73.5" x2="447.3" y2="276.6"/>
<path class="st10" d="M271.3,75.5c0,0,2,78.7,0,162.7c0,0-1.3,22,0,33.6"/>
<path class="st10" d="M744,71.3c0,0,21.9,72.7,17.9,134.9"/>
<linearGradient id="SVGID_1_" gradientUnits="userSpaceOnUse" x1="528.383" y1="168.211" x2="563.156" y2="168.211">
	<stop  offset="4.926108e-03" style="stop-color:#F39321"/>
	<stop  offset="1" style="stop-color:#E02A29"/>
</linearGradient>
<polyline class="st11" points="548.4,141.6 528.4,185.1 538,194.8 563.2,141.6 "/>
<linearGradient id="SVGID_2_" gradientUnits="userSpaceOnUse" x1="355.3803" y1="141.662" x2="355.3803" y2="141.662">
	<stop  offset="0" style="stop-color:#FFFFFF"/>
	<stop  offset="1" style="stop-color:#000000"/>
</linearGradient>
<path class="st12" d="M355.4,141.7"/>
<linearGradient id="SVGID_3_" gradientUnits="userSpaceOnUse" x1="556.5092" y1="163.0685" x2="583.3062" y2="163.0685">
	<stop  offset="4.926108e-03" style="stop-color:#F39321"/>
	<stop  offset="1" style="stop-color:#E02A29"/>
</linearGradient>
<path class="st13" d="M583.3,184.1l-19.2-42l-7.6,16l7.6,16.1c2.6,0.5,6.1,1.4,9.9,3.4C578.2,179.6,581.3,182.1,583.3,184.1z"/>
<linearGradient id="SVGID_4_" gradientUnits="userSpaceOnUse" x1="539.2277" y1="184.6705" x2="583.3062" y2="184.6705">
	<stop  offset="0" style="stop-color:#E02A29"/>
	<stop  offset="0.9951" style="stop-color:#F39321"/>
</linearGradient>
<path class="st14" d="M548.4,175l-9.2,19.2c1.3-1.2,8-6.9,18-6.4c9.5,0.4,15.5,6.1,16.9,7.4c3.1-3.1,6.2-6.3,9.2-9.4
	c-2.5-2.5-6.9-6.3-13.5-8.9C560.4,173.1,552,174.3,548.4,175z"/>
<linearGradient id="SVGID_5_" gradientUnits="userSpaceOnUse" x1="392.0938" y1="185.4193" x2="392.0938" y2="185.4193">
	<stop  offset="0" style="stop-color:#FFFFFF"/>
	<stop  offset="1" style="stop-color:#000000"/>
</linearGradient>
<path class="st15" d="M392.1,185.4"/>
<circle class="st16" cx="111.3" cy="323.5" r="33.8"/>
<circle class="st16" cx="606.6" cy="323.5" r="33.8"/>
<polygon class="st17" points="762,204.3 778.5,204.3 780.6,271.8 762,271.8 "/>
<polygon class="st3" points="762,224.4 779.1,224.5 779.6,239.6 762,239.6 "/>
<rect x="762.2" y="251.3" class="st3" width="17.6" height="4.7"/>
<polygon class="st3" points="762,258.3 780.2,258.2 780.3,262.6 762,262.6 "/>
<circle class="st18" cx="111.3" cy="323.5" r="27.9"/>
<circle class="st18" cx="605.7" cy="323.5" r="27.9"/>
<circle class="st19" cx="111.3" cy="323.5" r="20.5"/>
<circle class="st19" cx="605.7" cy="323.5" r="20.5"/>
<path class="st0" d="M919.8,162.9c0,0-0.3-17.9,13.8-10.6c0,0-0.3-5.3,3.8-3.5c0,0,4.5,2.1,1.5,7.1c0,0,5.5-2.4,5.8,1.1
	c0,0,1.8,10.7-6.8,5.7c0,0,4.8,7-2.3,7.8c0,0-5.5,0.8-6.5-4C929.1,166.4,921.6,172.7,919.8,162.9z"/>
<path class="st0" d="M1073.7,209.5c0,0,18.3,13.1,1,21.1c0,0,5.5,3.7,0.9,6.2c0,0-5.3,2.8-8.2-3.8c0,0-1.5,7.1-5.1,4.8
	c0,0-12.1-6.3-1-10.8c0,0-10.5-0.6-6.3-7.9c0,0,3.1-5.9,8.7-3.3C1063.6,215.9,1062.6,204,1073.7,209.5z"/>
<path class="st0" d="M1025,178.3c0,0,1.5-2.4,2.3,0c0,0,1.4-2.7,2.6-0.5c0,0,5.3,4.4-0.8,5.8c0,0,2.4,2.6,0,3.6c0,0-3,1.6-3.1-2.3
	c0,0-2.9,3.3-4.6,0.9c0,0-4.5-2.1,0-5.3C1021.4,180.5,1020,171.5,1025,178.3z"/>
<path class="st0" d="M825.7,239.1c0,0,2.5-1.3,2,1.1c0,0,2.5-1.7,2.5,0.8c0,0,2.4,6.4-3.5,4.7c0,0,0.8,3.5-1.8,3.2
	c0,0-3.4-0.1-1.6-3.5c0,0-4.1,1.4-4.5-1.5c0,0-2.9-4,2.6-4.6C821.5,239.3,824.7,230.7,825.7,239.1z"/>
<path class="st0" d="M1089.8,348.4c0,0,2.5-1.3,2,1.1c0,0,2.5-1.7,2.5,0.8c0,0,2.4,6.4-3.5,4.7c0,0,0.8,3.5-1.8,3.2
	c0,0-3.4-0.1-1.6-3.5c0,0-4.1,1.4-4.5-1.5c0,0-2.9-4,2.6-4.6C1085.5,348.5,1088.7,340,1089.8,348.4z"/>
<path class="st20" d="M904.4,279.3c19,2.8,36.7-10.4,39.4-29.4c2.2-15.2-8.3-29.3-23.5-31.6c-12.2-1.8-23.5,6.6-25.2,18.8
	c-1.4,9.7,5.3,18.8,15,20.2c7.8,1.1,15-4.3,16.2-12c0.9-6.2-3.4-12-9.6-12.9c-5-0.7-9.6,2.7-10.3,7.7c-0.6,4,2.2,7.7,6.2,8.3
	c3.2,0.5,6.2-1.7,6.6-4.9c0.4-2.6-1.4-4.9-3.9-5.3"/>
<path class="st20" d="M1025.7,331.4c12,8.6,28.7,5.7,37.3-6.3c6.8-9.6,4.6-23-5.1-29.8c-7.7-5.5-18.4-3.7-23.9,4
	c-4.4,6.2-2.9,14.7,3.2,19.1c4.9,3.5,11.8,2.3,15.3-2.6c2.8-3.9,1.9-9.4-2.1-12.2c-3.2-2.2-7.5-1.5-9.8,1.7c-1.8,2.5-1.2,6,1.3,7.8
	c2,1.4,4.8,1,6.3-1.1c1.1-1.6,0.8-3.9-0.8-5"/>
<path class="st20" d="M912.2,321.7c13.3,15.6,43.7,18.6,67.8,6.7c19.3-9.5,26.3-27.3,15.6-39.8c-8.5-10-27.9-11.9-43.4-4.3
	c-12.3,6.1-16.8,17.5-10,25.5c5.5,6.4,17.9,7.6,27.8,2.8c7.9-3.9,10.8-11.2,6.4-16.3c-3.5-4.1-11.4-4.9-17.8-1.8
	c-5.1,2.5-6.9,7.2-4.1,10.4c2.2,2.6,7.3,3.1,11.4,1.1c3.2-1.6,4.4-4.6,2.6-6.7"/>
<path class="st20" d="M984.8,246.9c4.6,8,14.9,10.8,23,6.2c6.4-3.7,8.6-11.9,4.9-18.4c-3-5.1-9.6-6.9-14.7-3.9
	c-4.1,2.4-5.5,7.6-3.2,11.8c1.9,3.3,6.1,4.4,9.4,2.5c2.6-1.5,3.5-4.9,2-7.5c-1.2-2.1-3.9-2.8-6-1.6c-1.7,1-2.3,3.1-1.3,4.8
	c0.8,1.3,2.5,1.8,3.9,1c1.1-0.6,1.4-2,0.8-3.1"/>
<path class="st20" d="M819.8,320.6c3,8.9,17.9,12.9,33.5,9.1c12.4-3.1,20.6-11.3,18.2-18.4c-1.9-5.7-11.5-8.3-21.4-5.8
	c-7.9,2-13.2,7.2-11.6,11.8c1.2,3.6,7.3,5.3,13.7,3.7c5.1-1.3,8.4-4.6,7.4-7.5c-0.8-2.3-4.7-3.4-8.8-2.4c-3.3,0.8-5.4,3-4.8,4.8
	c0.5,1.5,3,2.2,5.6,1.5c2.1-0.5,3.4-1.9,3.1-3.1"/>
<line class="st20" x1="744" y1="57.6" x2="944.2" y2="56.4"/>
<line class="st20" x1="803.1" y1="92.1" x2="984.8" y2="92.1"/>
<line class="st20" x1="780.7" y1="70.2" x2="884.6" y2="70"/>
<line class="st20" x1="786.6" y1="118.5" x2="855.6" y2="118.5"/>
<line class="st20" x1="843.8" y1="138.2" x2="984.8" y2="138.2"/>
<line class="st20" x1="824.4" y1="159.5" x2="855.6" y2="159.5"/>
<line class="st20" x1="685" y1="357.3" x2="757" y2="357.3"/>
<line class="st20" x1="760.8" y1="380.5" x2="950.3" y2="380.5"/>
<g>
	<g>
		<linearGradient id="SVGID_6_" gradientUnits="userSpaceOnUse" x1="659.7896" y1="183.4966" x2="659.7896" y2="156.3296">
			<stop  offset="0" style="stop-color:#E02A29"/>
			<stop  offset="0.9951" style="stop-color:#F39321"/>
		</linearGradient>
		<path class="st21" d="M599.6,163.7c-1.1,0.3-2.1,0.5-2.9,0.5c-0.4,0-0.6-0.2-0.6-0.5V163c0-0.2,0.1-0.4,0.2-0.6
			c0.1-0.1,0.4-0.3,0.8-0.4c0.6-0.2,1.4-0.6,2.5-1.3c1-0.7,2.1-1.5,3.1-2.6c0.8-0.8,1.2-1.3,1.4-1.4s0.4-0.1,0.7-0.1h1.6V180
			c0,0.2,0.2,0.4,0.6,0.6c0.4,0.2,0.6,0.3,0.7,0.5c0.1,0.2,0.1,0.6,0.1,1.3c0,0.3-0.2,0.4-0.7,0.4h-8.6c-0.4,0-0.6,0-0.7-0.1
			s-0.1-0.3-0.1-0.7c0-0.5,0-0.9,0.1-1c0.1-0.1,0.3-0.3,0.8-0.4c0.7-0.2,1.1-0.4,1.1-0.8V163.7z"/>
		<linearGradient id="SVGID_7_" gradientUnits="userSpaceOnUse" x1="659.7896" y1="183.4966" x2="659.7896" y2="156.3296">
			<stop  offset="0" style="stop-color:#E02A29"/>
			<stop  offset="0.9951" style="stop-color:#F39321"/>
		</linearGradient>
		<path class="st22" d="M611.6,166.4h5.8l1.6-6.2h3.6l-1.6,6.2h6.7l1.5-6.2h3.6l-1.5,6.2h3.2v3h-3.9l-1.2,4.9h5.1v3h-5.8l-1.5,6.1
			h-3.6l1.6-6.1h-6.8l-1.5,6.1h-3.6l1.5-6.1h-3.2v-3h3.9l1.2-4.9h-5.1V166.4z M620.3,169.4l-1.2,4.9h6.7l1.2-4.9H620.3z"/>
		<linearGradient id="SVGID_8_" gradientUnits="userSpaceOnUse" x1="659.7896" y1="183.4966" x2="659.7896" y2="156.3296">
			<stop  offset="0" style="stop-color:#E02A29"/>
			<stop  offset="0.9951" style="stop-color:#F39321"/>
		</linearGradient>
		<path class="st23" d="M659.3,168c2.3,0.7,3.9,1.5,4.8,2.6c0.9,1,1.3,2.4,1.3,4.2c0,2.7-0.8,4.7-2.4,6.1s-4.1,2-7.4,2h-9.2
			c-0.4,0-0.6-0.2-0.6-0.5v-1c0-0.3,0.2-0.5,0.5-0.6c0.7-0.3,1.1-0.7,1.1-1.3V160c0-0.3-0.1-0.5-0.2-0.5s-0.4-0.2-0.9-0.5
			c-0.3-0.1-0.4-0.2-0.4-0.3c0-0.1-0.1-0.4-0.1-0.9c0-0.4,0.1-0.7,0.2-0.8s0.4-0.2,0.7-0.2H657c2.5,0,4.4,0.5,5.7,1.6s2,2.5,2,4.1
			c0,1.4-0.5,2.6-1.6,3.5S660.8,167.6,659.3,168z M654.4,158.6v8.5h1c0.6,0,1.1-0.2,1.5-0.5s0.6-0.8,0.6-1.6
			c0.1-0.7,0.1-1.6,0.1-2.7c0-1.5-0.2-2.5-0.5-3c-0.3-0.5-0.9-0.7-1.7-0.7H654.4z M654.4,168.9v12c1.2,0,1.9-0.1,2.3-0.4
			c0.4-0.3,0.6-0.8,0.7-1.6c0.1-0.8,0.1-2.1,0.1-4c0-0.4,0-1.3-0.1-2.6c0-1.4-0.1-2.2-0.2-2.5s-0.3-0.5-0.6-0.7
			c-0.3-0.2-0.7-0.2-1.3-0.2H654.4z"/>
		<linearGradient id="SVGID_9_" gradientUnits="userSpaceOnUse" x1="659.7896" y1="183.4966" x2="659.7896" y2="156.3296">
			<stop  offset="0" style="stop-color:#E02A29"/>
			<stop  offset="0.9951" style="stop-color:#F39321"/>
		</linearGradient>
		<path class="st24" d="M675.5,158.8v9.2h1.3c0.4,0,0.6-0.1,0.8-0.2c0.2-0.1,0.3-0.4,0.4-0.8c0.2-0.8,0.3-1.2,0.4-1.4
			c0.1-0.2,0.2-0.2,0.4-0.2c1,0,1.6,0,1.7,0.1c0.1,0.1,0.2,0.3,0.2,0.8v5.4c0,0.3-0.1,0.6-0.2,0.7s-0.5,0.2-1.2,0.2
			c-0.4,0-0.7-0.1-0.9-0.2c-0.1-0.1-0.3-0.5-0.4-1.1c-0.1-0.6-0.3-0.9-0.4-1c-0.1-0.1-0.3-0.2-0.6-0.2h-1.5V181h1
			c0.6,0,1-0.1,1.3-0.4c0.2-0.3,0.6-1.1,1.1-2.6c0.2-0.6,0.4-1,0.7-1.2s0.6-0.3,1.2-0.3c0.8,0,1.2,0.2,1.2,0.6c0,0.1,0,0.3-0.1,0.6
			l-0.7,3.7c-0.1,0.7-0.2,1.1-0.3,1.2s-0.3,0.2-0.8,0.2h-12.6c-0.3,0-0.5-0.1-0.6-0.2c-0.1-0.1-0.1-0.5-0.1-1.1
			c0-0.4,0.2-0.6,0.7-0.8c0.7-0.2,1-0.6,1-1v-20.1c0-0.2-0.3-0.4-0.8-0.6c-0.4-0.1-0.6-0.3-0.7-0.4c-0.1-0.1-0.1-0.4-0.1-0.9
			c0-0.4,0-0.7,0.1-0.7c0.1-0.1,0.3-0.1,0.7-0.1h12c0.3,0,0.5,0,0.7,0.1c0.1,0.1,0.2,0.3,0.3,0.6l1,4.2c0,0.2,0.1,0.4,0.1,0.4
			c0,0.3-0.3,0.4-0.9,0.4c-0.7,0-1.1-0.1-1.4-0.2c-0.2-0.1-0.4-0.5-0.7-1c-0.4-1-0.7-1.6-1-2c-0.3-0.4-0.6-0.6-0.9-0.6H675.5z"/>
		<linearGradient id="SVGID_10_" gradientUnits="userSpaceOnUse" x1="659.7896" y1="183.4966" x2="659.7896" y2="156.3296">
			<stop  offset="0" style="stop-color:#E02A29"/>
			<stop  offset="0.9951" style="stop-color:#F39321"/>
		</linearGradient>
		<path class="st25" d="M691.8,157.5c0.1-0.1,0.3-0.3,0.6-0.7c0.2-0.3,0.5-0.4,0.9-0.4c0.1,0,0.4,0,1.1,0.1c0.1,0.1,0.2,0.3,0.3,0.7
			l1,5.5c0.1,0.3,0.1,0.5,0.1,0.5c0,0.2-0.1,0.3-0.2,0.4c-0.1,0.1-0.5,0.1-1,0.1c-0.6,0-1.1-0.1-1.2-0.2c-0.2-0.1-0.5-0.7-1.1-1.7
			c-1.1-2.2-2.1-3.2-3-3.2c-0.6,0-0.9,0.4-0.9,1.1c0,0.9,0.9,2.8,2.8,5.5c2.2,3.2,3.6,5.4,4.3,6.9c0.7,1.4,1,3,1,4.7
			c0,2.1-0.6,3.7-1.7,4.8s-2.4,1.7-3.9,1.7c-0.9,0-1.8-0.2-2.6-0.7c-0.3-0.2-0.6-0.3-0.8-0.3c-0.2,0-0.3,0.1-0.4,0.3
			c-0.2,0.4-0.7,0.6-1.5,0.6c-0.3,0-0.5,0-0.6-0.1c-0.1-0.1-0.2-0.3-0.2-0.6l-0.9-5.4c-0.1-0.7-0.2-1.1-0.2-1.1c0-0.3,0.3-0.5,1-0.5
			c0.9,0,1.4,0.1,1.6,0.3c0.2,0.2,0.4,0.7,0.7,1.4c1.1,2.6,2.2,3.9,3.3,3.9c0.4,0,0.8-0.1,1-0.4s0.4-0.6,0.4-1
			c0-0.7-0.3-1.5-0.9-2.4c-0.6-0.9-1.3-2-2.1-3.1c-2-2.7-3.4-4.9-4.2-6.5c-0.8-1.6-1.2-3.3-1.2-5c0-1.9,0.5-3.4,1.5-4.6
			c1-1.1,2.2-1.7,3.6-1.7C689.2,156.3,690.4,156.7,691.8,157.5z"/>
		<linearGradient id="SVGID_11_" gradientUnits="userSpaceOnUse" x1="659.7896" y1="183.4966" x2="659.7896" y2="156.3296">
			<stop  offset="0" style="stop-color:#E02A29"/>
			<stop  offset="0.9951" style="stop-color:#F39321"/>
		</linearGradient>
		<path class="st26" d="M702.5,158.6h-0.9c-0.3,0-0.5,0.2-0.7,0.5s-0.4,1.2-0.6,2.6c-0.1,0.6-0.2,1-0.4,1.2
			c-0.2,0.2-0.6,0.2-1.1,0.2c-0.5,0-0.9-0.1-1-0.2c-0.2-0.1-0.2-0.3-0.2-0.7c0-0.2,0-0.4,0-0.6l0.2-3.8c0-0.4,0.1-0.7,0.3-0.9
			c0.2-0.1,0.5-0.2,1.1-0.2H713c0.4,0,0.6,0,0.7,0.1c0.1,0.1,0.2,0.4,0.2,0.9l0.3,3.3c0,0.3,0,0.5,0,0.8c0,0.3,0,0.6-0.1,0.7
			c-0.1,0.2-0.4,0.3-0.9,0.3c-0.6,0-1.1-0.1-1.2-0.2s-0.3-0.4-0.4-1c-0.2-0.9-0.4-1.7-0.7-2.3c-0.2-0.6-0.5-0.9-0.9-0.9h-0.6v20.7
			c0,0.6,0.3,1,0.9,1.2c0.3,0.1,0.4,0.2,0.5,0.3c0.1,0.1,0.1,0.4,0.1,0.8c0,0.5-0.1,0.9-0.2,1s-0.4,0.1-0.8,0.1h-8.3
			c-0.3,0-0.5-0.1-0.6-0.2s-0.1-0.4-0.1-0.9c0-0.6,0.2-1,0.6-1.1c0.4-0.1,0.6-0.3,0.7-0.4c0.1-0.1,0.2-0.3,0.2-0.6V158.6z"/>
		<linearGradient id="SVGID_12_" gradientUnits="userSpaceOnUse" x1="659.7896" y1="183.4966" x2="659.7896" y2="156.3296">
			<stop  offset="0" style="stop-color:#E02A29"/>
			<stop  offset="0.9951" style="stop-color:#F39321"/>
		</linearGradient>
		<path class="st27" d="M720.6,174.6h-1.2c-0.3,0-0.4,0-0.5-0.1s-0.1-0.3-0.1-0.7c0-0.6-0.4-3.3-1.3-8.2c-0.7-3.9-1-6-1-6.3
			c0-0.8,0.3-1.5,0.9-2c0.6-0.6,1.5-0.8,2.6-0.8c1.1,0,1.9,0.3,2.5,0.9s0.9,1.3,0.9,2.1c0,0.6-0.5,3.4-1.4,8.5
			c-0.6,3.3-0.9,5.3-0.9,5.8c0,0.5,0,0.7-0.1,0.8C721,174.6,720.8,174.6,720.6,174.6z M719.8,176.4c0.9,0,1.7,0.3,2.3,0.9
			c0.6,0.6,0.9,1.4,0.9,2.3c0,0.8-0.3,1.6-0.9,2.3c-0.6,0.7-1.4,1-2.3,1c-0.9,0-1.6-0.3-2.2-0.9c-0.6-0.6-0.8-1.4-0.8-2.3
			c0-0.9,0.3-1.7,0.8-2.4C718.1,176.8,718.9,176.4,719.8,176.4z"/>
	</g>
</g>
</svg>
